{
  "accessors": [
    {
      "bufferView": 2,
      "componentType": 5126,
      "count": 59,
      "max": [
        38.543121337890625,
        -3.3564798831939697,
        72.93243408203125
      ],
      "min": [
        1.8069076538085938,
        -11.58350944519043,
        36.2263298034668
      ],
      "type": "VEC3"
    },
    {
      "bufferView": 2,
      "byteOffset": 708,
      "componentType": 5126,
      "count": 59,
      "max": [
        1.0,
        0.0,
        0.5089684128761292
      ],
      "min": [
        -0.43619441986083984,
        -0.9988892078399658,
        -0.43528178334236145
      ],
      "type": "VEC3"
    },
    {
      "bufferView": 1,
      "componentType": 5126,
      "count": 59,
      "max": [
        0.0,
        0.0
      ],
      "min": [
        0.0,
        0.0
      ],
      "type": "VEC2"
    },
    {
      "bufferView": 0,
      "componentType": 5125,
      "count": 156,
      "type": "SCALAR"
    },
    {
      "bufferView": 2,
      "byteOffset": 1416,
      "componentType": 5126,
      "count": 59,
      "max": [
        38.543121337890625,
        -3.3564798831939697,
        72.93243408203125
      ],
      "min": [
        1.8069076538085938,
        -11.58350944519043,
        36.2263298034668
      ],
      "type": "VEC3"
    },
    {
      "bufferView": 2,
      "byteOffset": 2124,
      "componentType": 5126,
      "count": 59,
      "max": [
        1.0,
        0.0,
        0.5089684128761292
      ],
      "min": [
        -0.43619441986083984,
        -0.9988892078399658,
        -0.43528178334236145
      ],
      "type": "VEC3"
    },
    {
      "bufferView": 1,
      "byteOffset": 472,
      "componentType": 5126,
      "count": 59,
      "max": [
        0.0,
        0.0
      ],
      "min": [
        0.0,
        0.0
      ],
      "type": "VEC2"
    },
    {
      "bufferView": 0,
      "byteOffset": 624,
      "componentType": 5125,
      "count": 156,
      "type": "SCALAR"
    },
    {
      "bufferView": 2,
      "byteOffset": 2832,
      "componentType": 5126,
      "count": 168,
      "max": [
        41.032264709472656,
        -2.4831768314470537e-05,
        75.248291015625
      ],
      "min": [
        -0.6999893188476563,
        -3.356470823287964,
        33.57037353515625
      ],
      "type": "VEC3"
    },
    {
      "bufferView": 2,
      "byteOffset": 4848,
      "componentType": 5126,
      "count": 168,
      "max": [
        0.9486833214759827,
        1.0,
        0.9828721880912781
      ],
      "min": [
        -1.0,
        -1.0,
        -0.9828722476959229
      ],
      "type": "VEC3"
    },
    {
      "bufferView": 1,
      "byteOffset": 944,
      "componentType": 5126,
      "count": 168,
      "max": [
        0.0,
        0.0
      ],
      "min": [
        0.0,
        0.0
      ],
      "type": "VEC2"
    },
    {
      "bufferView": 0,
      "byteOffset": 1248,
      "componentType": 5125,
      "count": 336,
      "type": "SCALAR"
    }
  ],
  "asset": {
    "extras": {
      "author": "soiber (https://sketchfab.com/soiber)",
      "license": "CC-BY-4.0 (http://creativecommons.org/licenses/by/4.0/)",
      "source": "https://sketchfab.com/3d-models/low-poly-heart-container-a7ff3aaadd70477c95d472f628f9236c",
      "title": "Low Poly Heart Container"
    },
    "generator": "Sketchfab-12.68.0",
    "version": "2.0"
  },
  "bufferViews": [
    {
      "buffer": 0,
      "byteLength": 2592,
      "name": "floatBufferViews",
      "target": 34963
    },
    {
      "buffer": 0,
      "byteLength": 2288,
      "byteOffset": 2592,
      "byteStride": 8,
      "name": "floatBufferViews",
      "target": 34962
    },
    {
      "buffer": 0,
      "byteLength": 6864,
      "byteOffset": 4880,
      "byteStride": 12,
      "name": "floatBufferViews",
      "target": 34962
    }
  ],
  "buffers": [
    {
      "byteLength": 11744,
      "uri": "scene.bin"
    }
  ],
  "materials": [
    {
      "doubleSided": true,
      "name": "07_-_Default",
      "pbrMetallicRoughness": {
        "baseColorFactor": [
          0.145098,
          0.145098,
          0.145098,
          1.0
        ],
        "metallicFactor": 0.0,
        "roughnessFactor": 0.6
      }
    },
    {
      "alphaMode": "BLEND",
      "doubleSided": true,
      "name": "08_-_Default",
      "pbrMetallicRoughness": {
        "baseColorFactor": [
          0.831373,
          0.164706,
          0.164706,
          0.8
        ],
        "metallicFactor": 0.0,
        "roughnessFactor": 0.6
      }
    }
  ],
  "meshes": [
    {
      "name": "Object_0",
      "primitives": [
        {
          "attributes": {
            "NORMAL": 1,
            "POSITION": 0,
            "TEXCOORD_0": 2
          },
          "indices": 3,
          "material": 1,
          "mode": 4
        }
      ]
    },
    {
      "name": "Object_1",
      "primitives": [
        {
          "attributes": {
            "NORMAL": 5,
            "POSITION": 4,
            "TEXCOORD_0": 6
          },
          "indices": 7,
          "material": 1,
          "mode": 4
        }
      ]
    },
    {
      "name": "Object_2",
      "primitives": [
        {
          "attributes": {
            "NORMAL": 9,
            "POSITION": 8,
            "TEXCOORD_0": 10
          },
          "indices": 11,
          "material": 0,
          "mode": 4
        }
      ]
    }
  ],
  "nodes": [
    {
      "children": [
        1
      ],
      "matrix": [
        1.0,
        0.0,
        0.0,
        0.0,
        0.0,
        2.220446049250313e-16,
        -1.0,
        0.0,
        0.0,
        1.0,
        2.220446049250313e-16,
        0.0,
        0.0,
        0.0,
        0.0,
        1.0
      ],
      "name": "Sketchfab_model"
    },
    {
      "children": [
        2,
        5,
        8
      ],
      "name": "826650f76a7046508f1032f55a788c8c.3ds"
    },
    {
      "children": [
        3
      ],
      "matrix": [
        1.0,
        0.0,
        0.0,
        0.0,
        0.0,
        -1.1920928955078125e-07,
        0.9999999403953552,
        0.0,
        0.0,
        0.9999999403953552,
        1.1920928955078125e-07,
        0.0,
        29.327171325683594,
        -0.01399087905883789,
        60.80789566040039,
        1.0
      ],
      "name": "Line005"
    },
    {
      "children": [
        4
      ],
      "matrix": [
        1.0,
        0.0,
        0.0,
        0.0,
        0.0,
        -1.629206849429422e-07,
        -0.9999999999999734,
        0.0,
        0.0,
        0.9999999999999734,
        -1.629206849429422e-07,
        0.0,
        -29.338272094726563,
        -60.79016549434632,
        -3.3564587735453517,
        1.0
      ],
      "name": "3DSMeshMatrix"
    },
    {
      "mesh": 0,
      "name": "Object_4"
    },
    {
      "children": [
        6
      ],
      "matrix": [
        1.0,
        0.0,
        0.0,
        0.0,
        0.0,
        -1.1920928955078125e-07,
        0.9999999403953552,
        0.0,
        0.0,
        -0.9999999403953552,
        -1.1920928955078125e-07,
        0.0,
        29.338272094726563,
        -3.356468677520752,
        60.790164947509766,
        1.0
      ],
      "name": "Line003"
    },
    {
      "children": [
        7
      ],
      "matrix": [
        1.0,
        0.0,
        0.0,
        0.0,
        0.0,
        -1.629206849429422e-07,
        -0.9999999999999734,
        0.0,
        0.0,
        0.9999999999999734,
        -1.629206849429422e-07,
        0.0,
        -29.338272094726563,
        -60.79016549434632,
        -3.3564587735453517,
        1.0
      ],
      "name": "3DSMeshMatrix"
    },
    {
      "mesh": 1,
      "name": "Object_7"
    },
    {
      "children": [
        9
      ],
      "matrix": [
        0.2237626165151596,
        0.0,
        0.0,
        0.0,
        0.0,
        -2.6674582542796088e-08,
        0.2237626016139984,
        0.0,
        0.0,
        -0.2237626016139984,
        -2.6674582542796088e-08,
        0.0,
        25.590900421142578,
        -2.6865604922932107e-06,
        61.461341857910156,
        1.0
      ],
      "name": "Line001"
    },
    {
      "children": [
        10
      ],
      "matrix": [
        4.469021749807128,
        0.0,
        0.0,
        0.0,
        0.0,
        -7.280961164785626e-07,
        -4.469021749807008,
        0.0,
        0.0,
        4.469021749807008,
        -7.280961164785626e-07,
        0.0,
        -114.36629057923457,
        -274.6720735353263,
        3.274346704807512e-05,
        1.0
      ],
      "name": "3DSMeshMatrix"
    },
    {
      "mesh": 2,
      "name": "Object_10"
    }
  ],
  "scene": 0,
  "scenes": [
    {
      "name": "Sketchfab_Scene",
      "nodes": [
        0
      ]
    }
  ]
}
